<?xml version="1.0" encoding="utf-8"?>
<!-- Generator: Adobe Illustrator 23.0.6, SVG Export Plug-In . SVG Version: 6.00 Build 0)  -->
<svg version="1.1" id="Camada_1" xmlns="http://www.w3.org/2000/svg" xmlns:xlink="http://www.w3.org/1999/xlink" x="0px" y="0px"
	 viewBox="0 0 366 224.4" style="enable-background:new 0 0 366 224.4;" xml:space="preserve">
<style type="text/css">
	.st0{fill:#FFFFFF;}
	.st1{fill:url(#SVGID_1_);}
	.st2{clip-path:url(#SVGID_3_);}
	.st3{opacity:0.2;}
	.st4{fill:none;}
	.st5{clip-path:url(#SVGID_5_);}
	.st6{fill:none;stroke:#D9D9D9;stroke-width:0.6;stroke-linecap:round;}
</style>
<g transform="translate(-136.043 -216)">
	<g transform="matrix(1, 0, 0, 1, 136.04, 216)">
		<path class="st0" d="M28,19h310.9c5.5,0,10,4.5,10,10v184.5c0,5.5-4.5,10-10,10H28c-5.5,0-10-4.5-10-10V29C18,23.5,22.5,19,28,19z
			"/>
	</g>
	<g transform="translate(137 216)">
		<g transform="translate(0)">
			
				<radialGradient id="SVGID_1_" cx="157.0958" cy="-153.37" r="433.798" gradientTransform="matrix(0.615 0 0 -0.54 -9.9074 65.4506)" gradientUnits="userSpaceOnUse">
				<stop  offset="0" style="stop-color:#BFBFBF"/>
				<stop  offset="0.337" style="stop-color:#A8A8A8"/>
				<stop  offset="1" style="stop-color:#727272"/>
			</radialGradient>
			<path class="st1" d="M10,0h345c5.5,0,10,4.5,10,10v204.4c0,5.5-4.5,10-10,10H10c-5.5,0-10-4.5-10-10V10C0,4.5,4.5,0,10,0z"/>
			<g>
				<defs>
					<rect id="SVGID_2_" x="0" y="0" width="365" height="224.4"/>
				</defs>
				<clipPath id="SVGID_3_">
					<use xlink:href="#SVGID_2_"  style="overflow:visible;"/>
				</clipPath>
				<g class="st2">
					<g transform="translate(-198.747 19.822)" class="st3">
						<path class="st4" d="M0,184.5C34.8,144.4,168.2,10.7,413,0.7c84.8-3.5,156.4,7,211,20.3"/>
						<path class="st4" d="M0,185.1C35.1,145.4,170.6,12,415.6,5.3c70.3-2.3,140.5,5.8,208.4,24"/>
						<path class="st4" d="M0,185.7C35.4,146.5,173,13.9,418.2,9.9c69.6-1.2,139.1,8.2,205.9,27.9"/>
						<path class="st4" d="M0,186.3C35.8,147.5,175.4,15.4,420.8,14.5c69-0.3,137.6,10.4,203.3,31.7"/>
						<path class="st4" d="M0,186.9c36.1-38.3,177.8-170,423.3-167.7c68.4,0.6,136.2,12.6,200.7,35.5"/>
						<path class="st4" d="M0,187.5C36.4,149.5,180.2,18.3,425.9,23.8C493.7,25.4,560.7,38.6,624,63"/>
						<path class="st4" d="M0,188C36.7,150.5,182.6,19.6,428.5,28.4c67.2,2.5,133.4,17.1,195.5,43"/>
						<path class="st4" d="M0,188.6C37.1,151.4,185,20.9,431.1,33C508.5,36.8,574,57.4,624,79.8"/>
						<path class="st4" d="M0,189.1C37.4,152.3,187.5,22.2,433.7,37.7c76.3,4.8,141,26.8,190.3,50.5"/>
						<path class="st4" d="M0,189.7C37.7,153.2,189.9,23.4,436.3,42.3c75.3,5.8,139,29.3,187.7,54.3"/>
						<path class="st4" d="M0,190.2C38,154,192.4,24.6,438.9,46.9c74.2,6.7,137.1,31.6,185.1,58"/>
						<path class="st4" d="M0,190.7C38.3,154.8,194.8,25.7,441.5,51.5c73.2,7.7,135.2,34,182.5,61.7"/>
						<path class="st4" d="M0,191.3C38.7,155.7,197.3,26.7,444.1,56.2c72.1,8.6,133.2,36.4,179.9,65.4"/>
						<path class="st4" d="M0,191.8c39-35.3,199.8-164.1,446.7-131C517.7,70.3,578,99.6,624,129.9"/>
						<path class="st4" d="M0,192.3C39.3,157.2,202.3,28.6,449.3,65.4c70,10.4,129.4,41.1,174.8,72.8"/>
						<path class="st4" d="M0,192.8C39.6,157.9,204.8,29.5,451.8,70c69,11.3,127.5,43.4,172.2,76.5"/>
						<path class="st4" d="M0,193.3C39.9,158.6,207.4,29.8,454.4,74.7c68,12.1,125.5,45.6,169.6,80.1"/>
						<path class="st4" d="M0,193.8C40.3,159.3,210,31,457,79.3c66.9,13.1,123.6,48.3,167,84"/>
					</g>
				</g>
			</g>
			<g transform="translate(0 0.001)">
				<g>
					<defs>
						<rect id="SVGID_4_" x="0" y="0" width="365" height="224.4"/>
					</defs>
					<clipPath id="SVGID_5_">
						<use xlink:href="#SVGID_4_"  style="overflow:visible;"/>
					</clipPath>
					<g class="st5">
						<g transform="translate(-198.747 19.822)" class="st3">
							<path class="st6" d="M0,184.5C34.8,144.4,168.2,10.7,413,0.7c84.8-3.5,156.4,7,211,20.3"/>
							<path class="st6" d="M0,185.1C35.1,145.4,170.6,12,415.6,5.3c70.3-2.3,140.5,5.8,208.4,24"/>
							<path class="st6" d="M0,185.7C35.4,146.5,173,13.9,418.2,9.9c69.6-1.2,139.1,8.2,205.9,27.9"/>
							<path class="st6" d="M0,186.3C35.8,147.5,175.4,15.4,420.8,14.5c69-0.3,137.6,10.4,203.3,31.7"/>
							<path class="st6" d="M0,186.9c36.1-38.3,177.8-170,423.3-167.7c68.4,0.6,136.2,12.6,200.7,35.5"/>
							<path class="st6" d="M0,187.5C36.4,149.5,180.2,18.3,425.9,23.8C493.7,25.4,560.7,38.6,624,63"/>
							<path class="st6" d="M0,188C36.7,150.5,182.6,19.6,428.5,28.4c67.2,2.5,133.4,17.1,195.5,43"/>
							<path class="st6" d="M0,188.6C37.1,151.4,185,20.9,431.1,33C508.5,36.8,574,57.4,624,79.8"/>
							<path class="st6" d="M0,189.1C37.4,152.3,187.5,22.2,433.7,37.7c76.3,4.8,141,26.8,190.3,50.5"/>
							<path class="st6" d="M0,189.7C37.7,153.2,189.9,23.4,436.3,42.3c75.3,5.8,139,29.3,187.7,54.3"/>
							<path class="st6" d="M0,190.2C38,154,192.4,24.6,438.9,46.9c74.2,6.7,137.1,31.7,185.1,58"/>
							<path class="st6" d="M0,190.8C38.3,154.8,194.8,25.7,441.5,51.5c73.2,7.7,135.2,34,182.5,61.7"/>
							<path class="st6" d="M0,191.3C38.7,155.7,197.3,26.7,444.1,56.2c72.1,8.6,133.2,36.4,179.9,65.4"/>
							<path class="st6" d="M0,191.8c39-35.3,199.8-164.1,446.7-131C517.7,70.3,578,99.6,624,129.9"/>
							<path class="st6" d="M0,192.3C39.3,157.2,202.3,28.6,449.3,65.4c70,10.4,129.4,41.1,174.8,72.8"/>
							<path class="st6" d="M0,192.8C39.6,157.9,204.8,29.5,451.8,70c69,11.3,127.5,43.4,172.2,76.5"/>
							<path class="st6" d="M0,193.3C39.9,158.6,207.4,29.8,454.4,74.7c68,12.1,125.5,45.6,169.6,80.1"/>
							<path class="st6" d="M0,193.8C40.3,159.4,210,31,457,79.3c66.9,13.1,123.6,48.3,167,84"/>
						</g>
					</g>
				</g>
			</g>
		</g>
	</g>
</g>
</svg>
