<?xml version="1.0" encoding="utf-8"?>
<!-- Generator: Adobe Illustrator 23.0.6, SVG Export Plug-In . SVG Version: 6.00 Build 0)  -->
<svg version="1.1" id="Camada_1" xmlns="http://www.w3.org/2000/svg" xmlns:xlink="http://www.w3.org/1999/xlink" x="0px" y="0px"
	 viewBox="0 0 364 223.8" style="enable-background:new 0 0 364 223.8;" xml:space="preserve">
<style type="text/css">
	.st0{fill:url(#SVGID_1_);}
	.st1{fill:#1C1C1C;}
	.st2{fill:#FFFFFF;}
	.st3{opacity:0.9;}
</style>
<g transform="translate(0 0)">
	
		<radialGradient id="SVGID_1_" cx="-12.2279" cy="-187.3312" r="432.606" gradientTransform="matrix(-0.615 0 0 -0.54 282.182 46.8486)" gradientUnits="userSpaceOnUse">
		<stop  offset="0" style="stop-color:#5A7589"/>
		<stop  offset="0.323" style="stop-color:#436175"/>
		<stop  offset="0.549" style="stop-color:#315266"/>
		<stop  offset="1" style="stop-color:#124768"/>
	</radialGradient>
	<path class="st0" d="M10,0h344c5.5,0,10,4.5,10,10v203.8c0,5.5-4.5,10-10,10H10c-5.5,0-10-4.5-10-10V10C0,4.5,4.5,0,10,0z"/>
	<rect y="38.7" class="st1" width="364" height="48.4"/>
	<rect x="166" y="106.3" class="st2" width="61.1" height="24.9"/>
	<g transform="translate(40.721 106.257)" class="st3">
		<rect x="0" y="0" class="st2" width="125.3" height="1.5"/>
		<rect x="0" y="2.6" class="st2" width="125.3" height="1.5"/>
		<rect x="0" y="5.2" class="st2" width="125.3" height="1.5"/>
		<rect x="0" y="7.8" class="st2" width="125.3" height="1.5"/>
		<rect x="0" y="10.4" class="st2" width="125.3" height="1.5"/>
		<rect x="0" y="13" class="st2" width="125.3" height="1.5"/>
		<rect x="0" y="15.6" class="st2" width="125.3" height="1.5"/>
		<rect x="0" y="18.2" class="st2" width="125.3" height="1.5"/>
		<rect x="0" y="20.8" class="st2" width="125.3" height="1.5"/>
		<rect x="0" y="23.4" class="st2" width="125.3" height="1.5"/>
	</g>
</g>
</svg>
