<?xml version="1.0" encoding="utf-8"?>
<!-- Generator: Adobe Illustrator 23.0.6, SVG Export Plug-In . SVG Version: 6.00 Build 0)  -->
<svg version="1.1" id="Camada_1" xmlns="http://www.w3.org/2000/svg" xmlns:xlink="http://www.w3.org/1999/xlink" x="0px" y="0px"
	 viewBox="0 0 364 223.8" style="enable-background:new 0 0 364 223.8;" xml:space="preserve">
<style type="text/css">
	.st0{fill:url(#SVGID_1_);}
	.st1{clip-path:url(#SVGID_3_);}
	.st2{opacity:0.2;}
	.st3{fill:none;stroke:#53AEE0;stroke-width:0.6;stroke-linecap:round;}
</style>
<g transform="translate(0)">
	
		<radialGradient id="SVGID_1_" cx="162.0939" cy="-187.3452" r="432.606" gradientTransform="matrix(0.615 0 0 -0.54 -9.566 46.8546)" gradientUnits="userSpaceOnUse">
		<stop  offset="0" style="stop-color:#5A7589"/>
		<stop  offset="0.323" style="stop-color:#436175"/>
		<stop  offset="0.549" style="stop-color:#315266"/>
		<stop  offset="1" style="stop-color:#124768"/>
	</radialGradient>
	<path class="st0" d="M10,0h344c5.5,0,10,4.5,10,10v203.8c0,5.5-4.5,10-10,10H10c-5.5,0-10-4.5-10-10V10C0,4.5,4.5,0,10,0z"/>
	<g>
		<defs>
			<rect id="SVGID_2_" y="0" width="364" height="223.8"/>
		</defs>
		<clipPath id="SVGID_3_">
			<use xlink:href="#SVGID_2_"  style="overflow:visible;"/>
		</clipPath>
		<g class="st1">
			<g transform="translate(-198.203 19.768)" class="st2">
				<path class="st3" d="M0,184C34.7,144,167.8,10.7,411.8,0.7c84.5-3.5,156,7,210.5,20.2"/>
				<path class="st3" d="M0,184.6C35,145,170.2,12,414.4,5.3c70.1-2.2,140.1,5.8,207.9,23.9"/>
				<path class="st3" d="M0,185.2C35.3,146.1,172.5,13.8,417,9.9c69.4-1.2,138.7,8.1,205.3,27.8"/>
				<path class="st3" d="M0,185.8C35.7,147.1,174.9,15.3,419.6,14.5c68.8-0.3,137.2,10.4,202.7,31.6"/>
				<path class="st3" d="M0,186.4C36,148.1,177.3,16.8,422.2,19.1c68.2,0.6,135.8,12.6,200.1,35.4"/>
				<path class="st3" d="M0,187C36.3,149.1,179.7,18.2,424.8,23.7c67.6,1.6,134.4,14.8,197.5,39.1"/>
				<path class="st3" d="M0,187.5c36.6-37.5,182.1-168,427.4-159.2c67,2.5,133.1,17,195,42.9"/>
				<path class="st3" d="M0,188.1C37,151,184.5,20.9,429.9,32.9c77.2,3.8,142.5,24.3,192.4,46.7"/>
				<path class="st3" d="M0,188.6C37.3,151.9,187,22.1,432.5,37.6c76.1,4.8,140.6,26.8,189.8,50.4"/>
				<path class="st3" d="M0,189.2c37.6-36.4,189.4-165.8,435.1-147c75.1,5.8,138.7,29.2,187.2,54.1"/>
				<path class="st3" d="M0,189.7C37.9,153.6,191.8,24.5,437.7,46.8c74,6.7,136.7,31.6,184.6,57.8"/>
				<path class="st3" d="M0,190.2C38.2,154.4,194.3,25.6,440.3,51.4c73,7.7,134.8,33.9,182,61.5"/>
				<path class="st3" d="M0,190.7C38.6,155.2,196.8,26.6,442.9,56c71.9,8.6,132.9,36.3,179.4,65.2"/>
				<path class="st3" d="M0,191.3C38.9,156,199.2,27.6,445.4,60.6c70.9,9.5,131,38.7,176.9,68.9"/>
				<path class="st3" d="M0,191.8c39.2-35,201.7-163.2,448-126.5c69.8,10.4,129,41,174.3,72.6"/>
				<path class="st3" d="M0,192.3C39.5,157.5,204.3,29.4,450.6,69.8c68.8,11.3,127.1,43.3,171.7,76.3"/>
				<path class="st3" d="M0,192.7c39.8-34.6,206.9-163,453.2-118.3C521,86.5,578.4,120,622.3,154.3"/>
				<path class="st3" d="M0,193.2C40.1,158.9,209.4,30.9,455.8,79.1c66.7,13,123.3,48.2,166.5,83.8"/>
			</g>
		</g>
	</g>
</g>
</svg>
