<?xml version="1.0" encoding="utf-8"?>
<!-- Generator: Adobe Illustrator 23.0.6, SVG Export Plug-In . SVG Version: 6.00 Build 0)  -->
<svg version="1.1" id="Camada_1" xmlns="http://www.w3.org/2000/svg" xmlns:xlink="http://www.w3.org/1999/xlink" x="0px" y="0px"
	 viewBox="0 0 50 50" style="enable-background:new 0 0 50 50;" xml:space="preserve">
<style type="text/css">
	.st0{fill:none;}
	.st1{fill:none;stroke:#FFFFFF;stroke-width:3;}
	.st2{fill:#FFFFFF;}
</style>
<g transform="translate(-64 -55)">
	<g transform="translate(64 55)">
		<circle class="st0" cx="25" cy="25" r="25"/>
		<circle class="st1" cx="25" cy="25" r="23.5"/>
	</g>
	<g transform="translate(74.833 65.834)">
		<g transform="translate(0 0)">
			<path class="st2" d="M28.4,10l-9.2-9.2c-1-1-2.7-1-3.7,0L0.8,15.4c-1,1-1,2.7,0,3.7l1.1,1.1l0,0l7.7,7.7H8.5
				c-0.3,0-0.6,0.3-0.6,0.6c0,0.3,0.3,0.6,0.6,0.6h12.2c0.3,0,0.6-0.3,0.6-0.6c0-0.3-0.3-0.6-0.6-0.6h-6.5l14.2-14.2
				C29.4,12.7,29.4,11,28.4,10z M27.5,12.9L12.9,27.5c-0.3,0.3-0.6,0.4-1,0.4l0,0c-0.4,0-0.7-0.1-1-0.4l-7.7-7.7L17.3,5.8
				c0.2-0.2,0.3-0.6,0-0.9s-0.6-0.3-0.9,0c0,0,0,0,0,0L2.3,19l-0.7-0.7c-0.6-0.6-0.6-1.5,0-2L16.3,1.6c0.6-0.6,1.5-0.6,2,0l3.3,3.3
				L7.5,19c-0.2,0.2-0.2,0.6,0,0.9c0.2,0.2,0.6,0.2,0.8,0L22.4,5.8l5.1,5.1C28.1,11.4,28.1,12.3,27.5,12.9z"/>
			<path class="st2" d="M15,17.5c-0.2-0.2-0.6-0.2-0.9,0l-4.8,4.8c-0.2,0.2-0.2,0.6,0,0.9c0.2,0.2,0.6,0.2,0.8,0l4.8-4.8
				C15.2,18.2,15.2,17.8,15,17.5z"/>
			<path class="st2" d="M13,22.1l-2,2c-0.2,0.2-0.2,0.6,0,0.9c0.2,0.2,0.6,0.2,0.8,0l2-2c0.2-0.2,0.2-0.6,0-0.9
				C13.6,21.9,13.2,21.9,13,22.1L13,22.1z"/>
			<path class="st2" d="M14.8,20.3l-0.3,0.3c-0.2,0.2-0.3,0.6,0,0.9c0.2,0.2,0.6,0.3,0.9,0c0,0,0,0,0,0l0.3-0.3
				c0.2-0.2,0.3-0.6,0-0.9C15.5,20,15.1,20,14.8,20.3C14.8,20.3,14.8,20.3,14.8,20.3z"/>
			<path class="st2" d="M23.2,9.3c-0.2-0.2-0.6-0.2-0.9,0l-2.6,2.6c-0.2,0.2-0.2,0.6,0,0.9l1.7,1.7c0.2,0.2,0.6,0.2,0.9,0l2.6-2.6
				c0.2-0.2,0.2-0.6,0-0.9L23.2,9.3z M21.9,13.2L21,12.3l1.7-1.7l0.9,0.9L21.9,13.2z"/>
			<path class="st2" d="M18.2,4.6c0.2,0,0.3-0.1,0.4-0.2l0.3-0.3c0.2-0.2,0.2-0.6,0-0.9c-0.2-0.2-0.6-0.2-0.8,0l-0.3,0.3
				c-0.2,0.2-0.2,0.6,0,0.9C17.9,4.5,18.1,4.6,18.2,4.6L18.2,4.6z"/>
			<path class="st2" d="M6.1,20.4l-0.3,0.3c-0.2,0.2-0.2,0.6,0,0.9c0.2,0.2,0.6,0.2,0.8,0L7,21.3c0.2-0.2,0.2-0.6,0-0.9
				C6.7,20.2,6.3,20.2,6.1,20.4z"/>
		</g>
	</g>
</g>
</svg>
