<?xml version="1.0" encoding="utf-8"?>
<!-- Generator: Adobe Illustrator 23.0.6, SVG Export Plug-In . SVG Version: 6.00 Build 0)  -->
<svg version="1.1" id="Camada_1" xmlns="http://www.w3.org/2000/svg" xmlns:xlink="http://www.w3.org/1999/xlink" x="0px" y="0px"
	 viewBox="0 0 260.4 42" style="enable-background:new 0 0 260.4 42;" xml:space="preserve">
<style type="text/css">
	.st0{fill:#00DE91;}
	.st1{fill:#F9F9F9;}
</style>
<g transform="translate(0 0)">
	<g transform="translate(59.241 8.249)">
		<path d="M2.2,3H0V0.8h9.7c7.3,0,12.2,4.4,12.2,12.1C21.9,20.6,17,25,9.7,25H4.3c-1.5,0-2.1-0.6-2.1-2.1L2.2,3z M5.4,22.9h4.1
			c6,0,9.9-3.5,9.9-10c0-6.4-4-10-9.9-10H4.7v19.2c-0.1,0.4,0.2,0.7,0.6,0.8C5.3,22.9,5.3,22.9,5.4,22.9L5.4,22.9z"/>
		<path d="M25.5,3h-2.2V0.8h13.9c1.5,0,2.1,0.6,2.1,2.1v2.4h-2.3V3.7C37,3.3,36.7,3,36.4,3c-0.1,0-0.1,0-0.2,0h-8.3v8.8H37v2.1h-9.1
			v8.2c-0.1,0.4,0.2,0.7,0.6,0.8c0.1,0,0.1,0,0.2,0h8.5c0.4,0,0.7-0.2,0.8-0.6c0-0.1,0-0.1,0-0.2v-1.6h2.2v2.4
			c0,1.5-0.6,2.1-2.1,2.1H27.6c-1.5,0-2.1-0.6-2.1-2.1L25.5,3z"/>
		<path d="M42.5,22.9h1.3c0.5,0,0.7-0.2,0.8-0.8l1.7-21.3h2.4l6.4,14.1c0.6,1.2,1.2,2.9,1.2,2.9h0.1c0,0,0.6-1.6,1.2-2.9l6.4-14.1
			h2.4l1.7,21.3c0,0.5,0.3,0.8,0.8,0.8h1.3V25h-2.3c-1.5,0-2-0.6-2.1-2.1L64.5,8.2c-0.1-1.3-0.1-3.4-0.1-3.4h-0.1
			C64,6,63.6,7.1,63.1,8.2l-5.8,12.3h-2.2L49.5,8.2c-0.6-1.2-1.3-3.4-1.3-3.4h-0.1c0,0,0,2.1-0.1,3.4l-1.1,14.7
			c-0.1,1.5-0.6,2.1-2.1,2.1h-2.3L42.5,22.9z"/>
		<path d="M84.5,0.4c6.8-0.1,12.3,5.4,12.3,12.1c0,0.1,0,0.1,0,0.2c0.2,6.8-5.2,12.5-12,12.7c-6.8,0.2-12.5-5.2-12.7-12
			c0-0.2,0-0.4,0-0.7C72.1,6,77.5,0.5,84.2,0.4C84.3,0.4,84.4,0.4,84.5,0.4z M84.5,23.2c5.4,0,9.8-4.5,9.8-10.4
			c0.1-5.4-4.1-9.9-9.6-10.1c-5.4-0.1-9.9,4.1-10.1,9.6c0,0.2,0,0.3,0,0.5C74.7,18.6,79.1,23.2,84.5,23.2z"/>
		<path d="M111.8,17.1c0,0,2.6,2.9,5.6,2.9c1.2,0,2.5-0.4,2.5-1.8c0-2.7-11.2-3-11.2-10.8c0-4.4,3.9-7.4,8.8-7.4
			c3.3,0,7.9,1.6,7.9,5.3V8h-5.5V7c0-0.9-1.3-1.4-2.4-1.4c-1.2,0-2.5,0.5-2.5,1.7c0,3,11.2,2.6,11.2,10.7c0,4.1-3.2,7.6-8.8,7.6
			c-3.4,0-6.7-1.5-9-4.1L111.8,17.1z"/>
		<path d="M130.3,6.3c0-0.4-0.2-0.7-0.6-0.8c0,0-0.1,0-0.1,0h-1.5V0.4h5.9c1.8,0,2.5,0.8,2.5,2.5v7.3h8.3V2.9c0-1.8,0.8-2.5,2.5-2.5
			h5.9v5.2h-1.5c-0.4,0-0.7,0.2-0.8,0.6c0,0,0,0.1,0,0.1V25h-6.2v-9.6h-8.3V25h-6.2L130.3,6.3z"/>
		<path d="M167.2,0c7.4,0,12.9,5.5,12.9,12.6c0.1,7.1-5.7,12.9-12.8,13c-7.1,0.1-12.9-5.7-13-12.8c0-0.1,0-0.2,0-0.2
			C154.3,5.5,159.8,0,167.2,0z M167.2,19.8c3.6,0,6.5-3.1,6.5-7.2c0.2-3.6-2.5-6.7-6.1-6.9s-6.7,2.5-6.9,6.1c0,0.3,0,0.5,0,0.8
			C160.8,16.7,163.6,19.8,167.2,19.8z"/>
		<path d="M183.5,5.6h-2.2V0.4h12c4.8,0,8,3.5,8,8.5s-3.2,8.5-8,8.5h-3.5V25h-6.2L183.5,5.6z M191.9,12.3c2,0,3-1.4,3-3.4
			s-1-3.3-2.9-3.3h-2.4v6.7L191.9,12.3z"/>
	</g>
	<path class="st0" d="M40,21l1.8-4.8c0.2-0.5,0-1.1-0.4-1.5l-4-3.2l-0.8-5.1c-0.1-0.6-0.5-1-1.1-1.1l-5.1-0.8l-3.2-4
		c-0.4-0.4-1-0.6-1.5-0.4L21,1.9l-4.8-1.8c-0.5-0.2-1.1,0-1.5,0.4l-3.2,4L6.4,5.3c-0.6,0.1-1,0.5-1.1,1.1l-0.8,5.1l-4,3.2
		c-0.4,0.4-0.6,1-0.4,1.5L1.9,21l-1.8,4.8c-0.2,0.5,0,1.1,0.4,1.5l4,3.2l0.8,5.1c0.1,0.6,0.5,1,1.1,1.1l5.1,0.8l3.2,4
		c0.4,0.4,1,0.6,1.5,0.4L21,40l4.8,1.8c0.1,0.1,0.3,0.1,0.5,0.1c0.4,0,0.8-0.2,1-0.5l3.2-4l5.1-0.8c0.6-0.1,1-0.5,1.1-1.1l0.8-5.1
		l4-3.2c0.4-0.4,0.6-1,0.4-1.5L40,21z"/>
	<g transform="translate(13.111 10.49)">
		<path class="st1" d="M3.9,7.9C1.8,7.9,0,6.1,0,3.9C0,1.8,1.8,0,3.9,0c2.2,0,3.9,1.8,3.9,3.9C7.9,6.1,6.1,7.9,3.9,7.9z M3.9,2.6
			c-0.7,0-1.3,0.6-1.3,1.3c0,0.7,0.6,1.3,1.3,1.3s1.3-0.6,1.3-1.3c0,0,0,0,0,0C5.2,3.2,4.7,2.6,3.9,2.6z"/>
		<path class="st1" d="M11.8,21c-2.2,0-3.9-1.8-3.9-3.9c0-2.2,1.8-3.9,3.9-3.9c2.2,0,3.9,1.8,3.9,3.9C15.7,19.2,14,21,11.8,21z
			 M11.8,15.7c-0.7,0-1.3,0.6-1.3,1.3c0,0.7,0.6,1.3,1.3,1.3s1.3-0.6,1.3-1.3c0,0,0,0,0,0C13.1,16.3,12.5,15.7,11.8,15.7z"/>
		<path class="st1" d="M1.3,21C0.6,21,0,20.4,0,19.7c0-0.3,0.1-0.5,0.2-0.8L13.4,0.5c0.4-0.6,1.2-0.7,1.8-0.3
			c0.6,0.4,0.7,1.2,0.3,1.8L2.4,20.4C2.1,20.8,1.7,21,1.3,21z"/>
	</g>
</g>
</svg>
